<?xml version="1.0" encoding="UTF-8" standalone="no"?>
<!-- Created with Inkscape (http://www.inkscape.org/) -->

<svg
   width="97.478539mm"
   height="130.55916mm"
   viewBox="0 0 97.478539 130.55916"
   version="1.1"
   id="svg98930"
   inkscape:version="1.2.2 (b0a8486541, 2022-12-01)"
   sodipodi:docname="Logo of Électricité de France (2003).svg"
   xmlns:inkscape="http://www.inkscape.org/namespaces/inkscape"
   xmlns:sodipodi="http://sodipodi.sourceforge.net/DTD/sodipodi-0.dtd"
   xmlns="http://www.w3.org/2000/svg"
   xmlns:svg="http://www.w3.org/2000/svg">
  <sodipodi:namedview
     id="namedview98932"
     pagecolor="#ffffff"
     bordercolor="#000000"
     borderopacity="0.25"
     inkscape:showpageshadow="2"
     inkscape:pageopacity="0.0"
     inkscape:pagecheckerboard="0"
     inkscape:deskcolor="#d1d1d1"
     inkscape:document-units="mm"
     showgrid="false"
     inkscape:zoom="0.7198092"
     inkscape:cx="106.97279"
     inkscape:cy="176.43564"
     inkscape:window-width="1866"
     inkscape:window-height="1011"
     inkscape:window-x="0"
     inkscape:window-y="0"
     inkscape:window-maximized="1"
     inkscape:current-layer="layer1" />
  <defs
     id="defs98927" />
  <g
     inkscape:label="Layer 1"
     inkscape:groupmode="layer"
     id="layer1"
     transform="translate(-76.666848,-101.6738)">
    <path
       fill-rule="nonzero"
       fill="#ef2c30"
       fill-opacity="1"
       d="M 174.12464,163.52706 H 76.680687 v 7.03935 h 97.443953 z m 0,0"
       id="path98602"
       style="stroke-width:1.7702" />
    <path
       fill-rule="nonzero"
       fill="#1475c5"
       fill-opacity="1"
       d="M 76.666848,164.95847 H 174.14539 V 101.6738 H 76.666848 v 63.28467"
       id="path98604"
       style="stroke-width:1.7702" />
    <path
       fill-rule="nonzero"
       fill="#1475c5"
       fill-opacity="1"
       d="M 174.14539,168.91372 H 76.666848 v 63.31924 h 97.478542 z m 0,0"
       id="path98606"
       style="stroke-width:1.7702" />
    <path
       fill-rule="nonzero"
       fill="#ffffff"
       fill-opacity="1"
       d="m 86.382214,160.04199 h 21.532816 l 2.30264,-4.19039 H 93.601301 l 1.00266,-5.89145 h 12.654149 l 2.28191,-4.25954 H 95.309265 l 0.954257,-5.49037 h 14.341388 l 2.4271,-4.26646 H 90.365164 c 0.290435,0.86433 0.345732,1.16169 0.345732,1.9085 0,0.62232 -0.06232,1.38985 -0.165841,2.03295 l -2.655301,16.21531 c -0.255862,1.54892 -0.698395,2.71753 -1.507429,3.94145 z m 29.588606,-24.09821 c 0.29044,0.86433 0.34573,1.16169 0.34573,1.9085 0,0.62232 -0.0621,1.38985 -0.16584,2.03295 l -2.6553,16.21531 -0.33881,1.45212 -0.48402,1.29999 -0.35266,0.67766 -0.33193,0.51168 h 10.17864 c 4.43243,0 6.79729,-0.29706 9.11377,-1.14097 1.79095,-0.64997 3.81007,-1.81858 5.02709,-2.9042 2.34413,-2.1021 4.03134,-6.15419 4.03134,-9.67389 0,-4.23881 -2.79358,-8.01427 -7.01163,-9.48025 -2.12286,-0.73989 -3.58882,-0.8989 -8.38771,-0.8989 z m 50.63048,0 h -22.33495 l 0.11065,0.35275 c 0.16589,0.48423 0.23513,0.96113 0.23513,1.57657 0,0.58087 -0.0692,1.38991 -0.17296,2.01223 l -2.6553,16.21531 c -0.20052,1.23776 -0.69148,2.66219 -1.17552,3.42977 l -0.32501,0.51168 h 7.41271 c -0.17276,-0.73989 -0.25586,-1.34148 -0.25586,-1.89466 0,-0.51172 0.083,-1.4037 0.18672,-2.04679 l 0.85052,-5.17922 h 12.56428 l 2.24732,-4.20424 H 149.2035 l 1.02339,-6.38927 h 14.00256 z m -44.66297,4.25261 4.51538,-0.005 c 3.24308,0 4.64678,0.35276 5.9537,1.49362 1.25159,1.08562 2.0468,2.91113 2.0468,4.72977 0,5.57332 -4.32179,9.37652 -10.65579,9.37652 h -4.5154 z m -36.323672,41.04653 1.147867,-7.00477 c 0.03462,-0.26946 0.06232,-0.60847 0.06232,-0.87818 0,-0.32516 -0.0276,-0.4496 -0.138243,-0.82976 H 96.4711 l -1.044137,1.84623 h -6.202638 l -0.407955,2.37873 h 6.140376 l -0.98191,1.83244 h -5.46965 l -0.428729,2.55847 h 7.177594 l -0.99574,1.80478 h -9.300452 c 0.345733,-0.53245 0.539363,-1.03725 0.656907,-1.70794 z m 10.12333,1.70794 c 0.297361,-0.5186 0.442528,-0.9266 0.567012,-1.72871 l 1.147867,-6.92178 c 0.04165,-0.25591 0.0692,-0.60154 0.0692,-0.89198 0,-0.25591 -0.01405,-0.422 -0.0692,-0.67767 h 2.586153 l -1.396788,8.49143 c -0.06232,0.33168 -0.103719,0.80211 -0.103719,1.07869 0,0.24889 0.01405,0.39391 0.0692,0.65002 z m 6.928662,-3.09784 c -0.014,0.0622 -0.014,0.11742 -0.014,0.16609 0,1.0234 1.00266,1.81858 2.26807,1.81858 1.07181,0 1.86009,-0.38738 2.50317,-1.18241 l 0.86437,1.61114 c -0.56703,0.35978 -0.82287,0.49075 -1.18244,0.63617 -0.67075,0.26946 -1.54892,0.40795 -2.45477,0.40795 -2.72444,0 -4.45317,-1.4037 -4.45317,-3.58879 0,-2.50318 2.08137,-4.25954 5.03401,-4.25954 2.24732,0 3.70635,1.27926 3.70635,3.27764 0,0.26294 -0.0416,0.60847 -0.13136,1.11327 z m 4.10051,-1.59735 c 0,-0.87125 -0.56701,-1.36913 -1.54892,-1.36913 -1.10638,0 -1.93616,0.55322 -2.36488,1.5835 h 3.9138 z m 10.01962,-0.20724 c -0.50479,-0.67074 -1.03031,-0.96117 -1.80477,-0.96117 -1.41756,0 -2.59308,1.17554 -2.59308,2.60002 0,1.27233 0.8367,2.08829 2.16435,2.08829 0.90585,0 1.66647,-0.41498 2.20583,-1.21011 l 0.93351,1.63879 c -0.76063,0.49777 -1.09947,0.67766 -1.61808,0.85053 -0.56702,0.19369 -1.23776,0.31111 -1.867,0.31111 -2.39945,0 -4.25954,-1.54897 -4.25954,-3.56115 0,-2.40637 2.15743,-4.21116 5.03401,-4.21116 0.96807,0 1.68029,0.17964 2.78667,0.68454 z m 6.05049,-2.15744 h 2.75902 l -0.87818,1.59735 h -2.17128 l -0.4633,2.51702 c -0.0346,0.26294 -0.0761,0.54625 -0.0761,0.69839 0,0.56702 0.49095,0.9266 1.27923,0.9266 0.50479,0 1.12712,-0.18666 1.57659,-0.49777 l -0.96808,1.80478 c -0.6984,0.22129 -1.30691,0.32516 -1.88774,0.32516 -1.49361,0 -2.32339,-0.69839 -2.32339,-1.99145 0,-0.22129 0.014,-0.422 0.0553,-0.64309 0.0206,-0.22129 0.0761,-0.55317 0.15204,-0.99575 l 0.15911,-0.95425 0.20052,-1.18934 h -2.06062 l 0.89892,-1.59735 h 1.60425 l 0.43565,-2.4824 2.12978,-0.0351 z m 3.084,5.33136 0.62235,-3.75474 c 0.0346,-0.26294 0.0621,-0.60852 0.0621,-0.89203 0,-0.24889 -0.0141,-0.41498 -0.0621,-0.68459 h 2.17816 l -0.17979,1.00268 c 0.85053,-0.89896 1.62499,-1.28619 2.62073,-1.28619 0.59468,0 1.05798,0.13849 1.45903,0.43555 l -0.99573,1.84629 c -0.26966,-0.42201 -0.56701,-0.59467 -1.05798,-0.59467 -1.03031,0 -1.87391,0.9819 -2.10211,2.45475 l -0.22129,1.47285 c -0.0621,0.40093 -0.10372,0.80211 -0.10372,1.07869 0,0.24889 0.014,0.39391 0.0761,0.65002 h -2.86275 c 0.29736,-0.5186 0.43566,-0.94733 0.56701,-1.72871 z m 9.2659,-8.9478 c 0.82286,0 1.38297,0.49075 1.38297,1.22391 0,0.73989 -0.6984,1.34148 -1.54892,1.34148 -0.91968,0 -1.44521,-0.43555 -1.44521,-1.18241 0,-0.81596 0.65692,-1.38298 1.61116,-1.38298 z m 0.83669,3.61644 -0.87818,5.33136 c -0.0482,0.33168 -0.10372,0.80211 -0.10372,1.07869 0,0.24889 0.0276,0.39391 0.083,0.65002 h -2.88348 c 0.28351,-0.5186 0.42868,-0.91968 0.55319,-1.72871 l 0.63615,-3.75474 c 0.0416,-0.26294 0.0761,-0.62237 0.0761,-0.89203 0,-0.26294 -0.0206,-0.42853 -0.0623,-0.68459 z m 7.53719,2.15744 c -0.50479,-0.67074 -1.03723,-0.96117 -1.81169,-0.96117 -1.41755,0 -2.59306,1.17554 -2.59306,2.60002 0,1.27233 0.83668,2.08829 2.17125,2.08829 0.89893,0 1.66647,-0.41498 2.20583,-1.21011 l 0.9266,1.63879 c -0.76064,0.49777 -1.09255,0.67766 -1.61117,0.85053 -0.56701,0.19369 -1.23776,0.31111 -1.87392,0.31111 -2.39945,0 -4.25954,-1.54897 -4.25954,-3.56115 0,-2.40637 2.15743,-4.21116 5.03401,-4.21116 0.96806,0 1.6803,0.17964 2.79358,0.68454 z m 4.16965,-5.77388 c 0.82979,0 1.38297,0.49075 1.38297,1.22391 0,0.73989 -0.69841,1.34148 -1.54892,1.34148 -0.91969,0 -1.44521,-0.43555 -1.44521,-1.18241 0,-0.81596 0.6569,-1.38298 1.61116,-1.38298 z m 0.83669,3.61644 -0.87818,5.33136 c -0.0487,0.33168 -0.0968,0.80211 -0.0968,1.07869 0,0.24889 0.0206,0.39391 0.0761,0.65002 h -2.8835 c 0.29044,-0.5186 0.42873,-0.91968 0.56011,-1.72871 l 0.62925,-3.75474 c 0.0417,-0.26294 0.0761,-0.62237 0.0761,-0.89203 0,-0.26294 -0.0206,-0.42853 -0.0623,-0.68459 z m 5.3106,0 h 2.75903 l -0.8782,1.59735 h -2.16433 l -0.4633,2.51702 c -0.0417,0.26294 -0.0831,0.54625 -0.0831,0.69839 0,0.56702 0.49095,0.9266 1.27925,0.9266 0.50477,0 1.12712,-0.18666 1.57658,-0.49777 l -0.96807,1.80478 c -0.6984,0.22129 -1.3069,0.32516 -1.88776,0.32516 -1.49361,0 -2.32339,-0.69839 -2.32339,-1.99145 0,-0.22129 0.014,-0.422 0.0553,-0.64309 0.0276,-0.22129 0.0761,-0.55317 0.15204,-0.99575 l 0.15897,-0.95425 0.20744,-1.18934 h -2.06754 l 0.89892,-1.59735 h 1.60425 l 0.43565,-2.4824 2.12976,-0.0351 z m 7.67548,-3.18079 h 2.55848 l -2.17817,2.12282 h -1.83242 z m -2.59306,7.14302 c -0.014,0.0622 -0.014,0.11742 -0.014,0.16609 0,1.0234 1.00958,1.81858 2.27499,1.81858 1.0718,0 1.86008,-0.38738 2.50317,-1.18241 l 0.86435,1.61114 c -0.56701,0.35978 -0.82286,0.49075 -1.18935,0.63617 -0.67074,0.26946 -1.54892,0.40795 -2.44785,0.40795 -2.72446,0 -4.45316,-1.4037 -4.45316,-3.58879 0,-2.50317 2.07446,-4.25954 5.034,-4.25954 2.24732,0 3.70636,1.27926 3.70636,3.27764 0,0.26294 -0.0417,0.60847 -0.13137,1.11327 z m 4.10741,-1.59735 c 0,-0.87125 -0.56701,-1.36913 -1.54893,-1.36913 -1.11329,0 -1.93615,0.55322 -2.36488,1.5835 h 3.91381 z m -71.167573,9.61162 0.159167,-0.82976 c 0.07612,-0.40093 0.117519,-0.71916 0.117519,-0.96805 0,-0.21426 -0.0276,-0.40795 -0.110644,-0.80903 h 2.48244 l -1.396815,8.47757 c -0.04817,0.32516 -0.08992,0.69839 -0.08992,0.9819 0,0.22129 0.0276,0.38738 0.08305,0.77446 H 91.24346 c -0.0276,-0.22129 -0.04165,-0.32516 -0.04165,-0.4772 0,-0.0763 0,-0.19369 0.01405,-0.35276 -0.567012,0.50475 -0.836688,0.67074 -1.279236,0.85741 -0.408005,0.15204 -0.8851,0.22831 -1.376066,0.22831 -2.019123,0 -3.485079,-1.41755 -3.485079,-3.3537 0,-2.45476 1.908504,-4.37711 4.363275,-4.37711 0.988815,0 1.818599,0.26946 2.337212,0.78831 z m -0.511695,3.3814 c 0,-1.12711 -0.636153,-1.79786 -1.680305,-1.79786 -1.217014,0 -2.29572,1.35529 -2.29572,2.89728 0,1.23777 0.567012,1.90851 1.59732,1.90851 1.320729,0 2.378705,-1.34143 2.378705,-3.00793 z m 6.216448,1.14785 c -0.01405,0.0622 -0.01405,0.11741 -0.01405,0.16609 0,1.0234 1.00264,1.81858 2.268066,1.81858 1.071804,0 1.860094,-0.38738 2.510094,-1.18241 l 0.86435,1.61114 c -0.57394,0.35978 -0.82978,0.49075 -1.18936,0.63617 -0.67073,0.26946 -1.54893,0.40795 -2.45477,0.40795 -2.724448,0 -4.453151,-1.4037 -4.453151,-3.58879 0,-2.50318 2.081365,-4.25954 5.034001,-4.25954 2.24733,0 3.70636,1.27926 3.70636,3.27764 0,0.26293 -0.0417,0.60852 -0.13137,1.11327 z m 4.10051,-1.59735 c 0,-0.87125 -0.56703,-1.36913 -1.54893,-1.36913 -1.106373,0 -1.936151,0.55322 -2.357975,1.5835 h 3.906905 z m 18.98123,-3.82388 h -6.05049 l -0.44253,2.75904 h 6.08507 l -0.97499,1.8255 h -5.41432 l -0.38031,2.22659 c -0.0346,0.29054 -0.0761,0.66382 -0.0761,0.89198 0,0.23534 0.0417,0.49075 0.10372,0.81596 h -3.20156 l 0.14517,-0.22129 c 0.22129,-0.33218 0.4218,-0.95425 0.51861,-1.4867 l 1.14785,-7.00477 c 0.0346,-0.26946 0.0623,-0.62232 0.0623,-0.86433 0,-0.26946 -0.0276,-0.4772 -0.0899,-0.68459 l -0.0552,-0.15205 h 9.6462 z m 0.31809,6.79036 0.62233,-3.75474 c 0.0346,-0.26294 0.0623,-0.60852 0.0623,-0.89203 0,-0.24889 -0.014,-0.41498 -0.0623,-0.68454 h 2.17818 l -0.17979,1.00263 c 0.85052,-0.89891 1.62498,-1.28614 2.62072,-1.28614 0.59467,0 1.05797,0.13849 1.45904,0.43555 l -0.99574,1.84628 c -0.26971,-0.422 -0.56703,-0.59467 -1.05798,-0.59467 -1.0303,0 -1.87391,0.98191 -2.10211,2.45476 l -0.22129,1.47285 c -0.0623,0.40093 -0.10372,0.80216 -0.10372,1.08567 0,0.24186 0.014,0.38738 0.0761,0.64304 h -2.86273 c 0.29736,-0.5186 0.43565,-0.9404 0.56701,-1.72871 z m 8.38078,-5.37281 c 0.51171,-0.11742 0.73298,-0.16609 0.99574,-0.21426 0.69149,-0.13147 1.52127,-0.20072 2.28191,-0.20072 0.83668,0 1.38987,0.0692 1.89466,0.23534 0.84361,0.28351 1.38297,1.04412 1.38297,1.93615 0,0.23484 -0.0482,0.72604 -0.15204,1.32764 l -0.36651,2.23351 -0.0761,0.5186 -0.0416,0.32516 c -0.0206,0.13849 -0.0346,0.28351 -0.0346,0.43555 0,0.16559 0.014,0.25591 0.0346,0.50475 h -1.85316 c -0.0276,-0.17964 -0.0417,-0.31111 -0.0417,-0.40093 0,-0.0763 0.014,-0.19369 0.0276,-0.33871 -0.56704,0.42853 -0.81596,0.57395 -1.35532,0.75374 -0.56702,0.17964 -1.12712,0.26946 -1.72871,0.26946 -1.87392,0 -3.03561,-0.80211 -3.03561,-2.08824 0,-1.75641 2.10211,-2.79361 5.65634,-2.79361 0.13824,0 0.34573,0 0.61541,0.0151 0.0417,-0.29706 0.0552,-0.40093 0.0552,-0.53937 0,-0.65689 -0.44252,-0.90583 -1.63881,-0.90583 -0.64999,0 -1.3553,0.0898 -1.94998,0.23534 -0.6984,0.16609 -1.14787,0.35978 -1.78403,0.78831 z m 3.78242,3.96218 -0.87818,0.0301 c -1.57659,0.0401 -2.63455,0.53932 -2.63455,1.22391 0,0.47018 0.44945,0.77446 1.1202,0.77446 1.3069,0 2.45477,-0.89895 2.62073,-2.02607 z m 9.74302,3.13934 c 0.19359,-0.25591 0.24201,-0.34573 0.33193,-0.68454 0.0899,-0.32516 0.11752,-0.42853 0.23509,-1.04417 l 0.24894,-1.32764 c 0.007,-0.0552 0.0482,-0.23533 0.11064,-0.54629 0.0417,-0.1661 0.0692,-0.33169 0.0899,-0.4772 l 0.0968,-0.44961 c 0.0206,-0.17964 0.0346,-0.33871 0.0346,-0.46315 0,-0.5463 -0.42873,-0.87818 -1.12022,-0.87818 -1.34147,0 -2.41327,0.88511 -2.63455,2.21966 l -0.40108,2.30954 c -0.0276,0.16609 -0.0482,0.422 -0.0482,0.68459 0,0.29706 0.007,0.40795 0.0761,0.65689 h -2.90424 c 0.16589,-0.29756 0.22129,-0.41498 0.31808,-0.68454 0.10372,-0.29756 0.13137,-0.43555 0.24894,-1.04417 l 0.68457,-3.75474 c 0.0346,-0.22129 0.0623,-0.62232 0.0623,-0.89203 0,-0.26946 -0.014,-0.42853 -0.0487,-0.68454 h 2.17817 l -0.15204,0.81591 c 0.86435,-0.78134 2.02605,-1.18934 3.27763,-1.18934 1.68031,0 2.78669,0.9404 2.78669,2.3718 0,0.10387 -0.014,0.22129 -0.0417,0.32516 l -0.17979,1.03028 -0.34579,1.96385 c -0.0552,0.28351 -0.10372,0.81596 -0.10372,1.08562 0,0.22831 0.014,0.37333 0.0761,0.65689 z m 11.58236,-4.90263 c -0.50479,-0.67074 -1.03031,-0.95425 -1.80477,-0.95425 -1.42446,0 -2.59998,1.16862 -2.59998,2.59309 0,1.27234 0.84361,2.0883 2.17126,2.0883 0.90584,0 1.66648,-0.41498 2.20583,-1.21011 l 0.93351,1.63879 c -0.76756,0.49777 -1.09947,0.68459 -1.61809,0.85053 -0.56701,0.19369 -1.23773,0.31111 -1.86699,0.31111 -2.40637,0 -4.25954,-1.54892 -4.25954,-3.56115 0,-2.40633 2.15051,-4.21111 5.034,-4.21111 0.96807,0 1.67339,0.17964 2.78669,0.68459 z m 4.50848,1.80479 c -0.014,0.0622 -0.014,0.11741 -0.014,0.16609 0,1.0234 1.00956,1.81858 2.26807,1.81858 1.07872,0 1.86009,-0.38738 2.51008,-1.18241 l 0.86436,1.61114 c -0.56701,0.35978 -0.82978,0.49075 -1.18934,0.63617 -0.67075,0.26946 -1.54893,0.40795 -2.45478,0.40795 -2.71754,0 -4.45317,-1.4037 -4.45317,-3.58879 0,-2.50318 2.08137,-4.25954 5.03401,-4.25954 2.24732,0 3.70636,1.27926 3.70636,3.27764 0,0.26293 -0.0417,0.60852 -0.13137,1.11327 z m 4.1005,-1.59735 c 0,-0.87125 -0.56701,-1.36913 -1.54892,-1.36913 -1.10638,0 -1.93616,0.55322 -2.35796,1.5835 h 3.90688 v -0.21427"
       id="path98670"
       style="stroke-width:1.7702" />
  </g>
</svg>
